<svg width="32" height="23" viewBox="0 0 32 23" fill="none" xmlns="http://www.w3.org/2000/svg">
<path d="M28 0H4C2.93913 0 1.92172 0.421424 1.17157 1.17157C0.421424 1.92172 0 2.93913 0 4V19C0 20.0609 0.421424 21.0783 1.17157 21.8284C1.92172 22.5786 2.93913 23 4 23H28C29.0609 23 30.0783 22.5786 30.8284 21.8284C31.5786 21.0783 32 20.0609 32 19V4C32 2.93913 31.5786 1.92172 30.8284 1.17157C30.0783 0.421424 29.0609 0 28 0ZM27.63 6.76999L16.63 15.77C16.4518 15.9145 16.2294 15.9934 16 15.9934C15.7706 15.9934 15.5482 15.9145 15.37 15.77L4.37 6.76999C4.25338 6.69282 4.15424 6.59205 4.07899 6.47418C4.00373 6.35632 3.95403 6.22399 3.9331 6.08572C3.91217 5.94746 3.92047 5.80634 3.95747 5.67148C3.99446 5.53662 4.05933 5.41103 4.14788 5.3028C4.23643 5.19457 4.3467 5.10612 4.47156 5.04315C4.59642 4.98019 4.7331 4.94412 4.87277 4.93726C5.01244 4.93039 5.152 4.9529 5.28243 5.00333C5.41286 5.05375 5.53126 5.13098 5.63 5.23001L16 13.71L26.37 5.23001C26.5766 5.0933 26.8266 5.03814 27.0715 5.07523C27.3165 5.11231 27.5389 5.23899 27.6958 5.43073C27.8527 5.62246 27.9328 5.86557 27.9206 6.11301C27.9085 6.36044 27.8049 6.59455 27.63 6.76999Z" fill="#042159"/>
</svg>
