<svg width="31" height="31" viewBox="0 0 31 31" fill="none" xmlns="http://www.w3.org/2000/svg">
<path d="M25.2103 19.2631C24.9925 19.0112 24.723 18.8092 24.4202 18.6707C24.1174 18.5322 23.7882 18.4605 23.4553 18.4605C23.1223 18.4605 22.7932 18.5322 22.4903 18.6707C22.1875 18.8092 21.918 19.0112 21.7002 19.2631C20.8802 20.0731 20.0603 20.8931 19.2503 21.7231C19.1741 21.8267 19.0609 21.897 18.9343 21.9194C18.8077 21.9417 18.6773 21.9144 18.5703 21.8431C18.0403 21.5531 17.4703 21.3231 16.9603 21.0031C14.6199 19.4864 12.5455 17.5943 10.8203 15.4031C9.91951 14.3412 9.17528 13.1558 8.61025 11.8831C8.54881 11.7776 8.5281 11.6532 8.55205 11.5335C8.576 11.4137 8.64295 11.3069 8.74025 11.2331C9.56025 10.4331 10.3602 9.62313 11.1702 8.80313C11.4346 8.58354 11.6473 8.30841 11.7934 7.99731C11.9394 7.68622 12.0151 7.3468 12.0151 7.00314C12.0151 6.65949 11.9394 6.32004 11.7934 6.00894C11.6473 5.69784 11.4346 5.42271 11.1702 5.20312L9.24025 3.27313C8.58025 2.61313 7.92025 1.94313 7.24025 1.27313C7.02066 1.02414 6.75061 0.824734 6.44802 0.688141C6.14543 0.551548 5.81724 0.480896 5.48525 0.480896C5.15326 0.480896 4.82507 0.551548 4.52248 0.688141C4.21989 0.824734 3.94983 1.02414 3.73024 1.27313C2.90024 2.08313 2.11024 2.92311 1.26024 3.72311C0.511902 4.4289 0.0642502 5.39588 0.0102587 6.42313C-0.0609777 8.10783 0.239468 9.78758 0.890264 11.3431C2.13754 14.5769 3.93392 17.5708 6.20025 20.1931C9.18318 23.7751 12.8958 26.6797 17.0903 28.7131C18.9542 29.6892 20.9939 30.2841 23.0903 30.4631C23.7925 30.5421 24.5034 30.4526 25.1642 30.2022C25.825 29.9518 26.4167 29.5476 26.8902 29.0231C27.5902 28.2331 28.3803 27.5131 29.1303 26.7631C29.3896 26.5425 29.5979 26.2682 29.7408 25.9591C29.8836 25.65 29.9576 25.3136 29.9576 24.9731C29.9576 24.6326 29.8836 24.2962 29.7408 23.9872C29.5979 23.6781 29.3896 23.4037 29.1303 23.1831C27.8369 21.8765 26.5303 20.5698 25.2103 19.2631Z" fill="#042159"/>
<path d="M30.4003 13.5531C27.7965 7.47099 22.9358 2.63539 16.8403 0.0631558C16.5948 -0.0284846 16.3231 -0.0201261 16.0837 0.0864712C15.8444 0.193069 15.6564 0.389364 15.5603 0.633133C15.5079 0.755115 15.4803 0.88631 15.4792 1.01906C15.478 1.15181 15.5033 1.28346 15.5536 1.40633C15.6038 1.52919 15.6781 1.64081 15.7719 1.7347C15.8658 1.82858 15.9774 1.90284 16.1003 1.95314C21.7191 4.32697 26.1994 8.7858 28.6003 14.3931C28.7076 14.6309 28.9036 14.8174 29.1465 14.9126C29.3894 15.0079 29.6599 15.0045 29.9003 14.9032C30.0234 14.8493 30.1343 14.7711 30.2266 14.6734C30.3188 14.5757 30.3904 14.4604 30.4371 14.3344C30.4837 14.2084 30.5045 14.0742 30.4982 13.94C30.4919 13.8058 30.4586 13.6742 30.4003 13.5531Z" fill="#042159"/>
<path d="M15.5802 7.38312C18.9861 8.8177 21.7032 11.5168 23.1603 14.9131C23.2376 15.0807 23.3599 15.2235 23.5134 15.3259C23.667 15.4283 23.8458 15.4861 24.0303 15.4931C24.1653 15.4921 24.2984 15.4614 24.4202 15.4031C24.6502 15.2905 24.8282 15.0939 24.9175 14.8538C25.0068 14.6138 25.0006 14.3487 24.9002 14.1131C23.2486 10.2572 20.1657 7.19223 16.3002 5.56314C16.0622 5.47864 15.801 5.48735 15.5691 5.58752C15.3373 5.68769 15.1519 5.87188 15.0502 6.10312C14.9562 6.34362 14.9589 6.61117 15.0577 6.84976C15.1565 7.08835 15.3437 7.27947 15.5802 7.38312Z" fill="#042159"/>
</svg>
