<svg width="48" height="48" viewBox="0 0 48 48" fill="none" xmlns="http://www.w3.org/2000/svg">
<path d="M34.353 17.327C37.4397 19.5413 41.2211 20.8442 45.3051 20.8442V12.9573C44.5322 12.9574 43.7613 12.8765 43.0051 12.7158V18.9239C38.9214 18.9239 35.1405 17.621 32.053 15.4068V31.5018C32.053 39.5533 25.5492 46.0799 17.5268 46.0799C14.5334 46.0799 11.7512 45.1717 9.44006 43.6141C12.0779 46.3209 15.7565 48 19.8263 48C27.8492 48 34.3534 41.4734 34.3534 33.4216V17.327H34.353ZM37.1904 9.37002C35.6129 7.64048 34.5772 5.40538 34.353 2.93438V1.91995H32.1735C32.7221 5.06059 34.5934 7.74377 37.1904 9.37002ZM14.5142 37.4356C13.6329 36.2759 13.1566 34.8572 13.1587 33.3985C13.1587 29.7161 16.1336 26.7303 19.8037 26.7303C20.4877 26.7301 21.1675 26.8352 21.8194 27.0428V18.9796C21.0576 18.8748 20.2888 18.8303 19.5203 18.8466V25.1226C18.868 24.9151 18.1878 24.8096 17.5037 24.8103C13.8335 24.8103 10.8589 27.7958 10.8589 31.4787C10.8589 34.0828 12.3458 36.3374 14.5142 37.4356Z" fill="#FF004F"/>
<path d="M31.7617 2.41995C32.4173 5.5024 34.2984 8.12723 36.8691 9.75784C38.3602 11.3722 40.3062 12.5587 42.5049 13.1114V18.4131C38.8109 18.314 35.3919 17.1203 32.5527 15.1426V14.9063H30.498L31.5527 15.6621V31.502C31.5526 39.2788 25.271 45.5801 17.5264 45.5801C14.6525 45.58 11.9822 44.7122 9.75879 43.2246C7.30784 40.6901 5.79993 37.2338 5.7998 33.4219C5.7998 25.9171 11.6498 19.7864 19.0195 19.3672V24.4737C18.5306 24.3677 18.0231 24.3106 17.5029 24.3106C13.5552 24.3107 10.3586 27.5217 10.3584 31.4785C10.3584 34.2372 11.9123 36.6307 14.1885 37.8291C15.496 39.4944 17.5241 40.5674 19.8037 40.5674C23.7431 40.5672 26.9343 37.3687 26.9482 33.4229V2.41995H31.7617Z" fill="#042159" stroke="#042159"/>
<path d="M43.0051 12.7156V11.037C40.9495 11.0401 38.9343 10.4624 37.1903 9.36987C38.7342 11.0661 40.7671 12.2357 43.0051 12.7156ZM32.1734 1.91997C32.1211 1.61982 32.0809 1.3177 32.053 1.01443V0H24.148V31.5016C24.1354 35.1735 21.1658 38.1471 17.5033 38.1471C16.428 38.1471 15.4128 37.891 14.5137 37.4358C15.7279 39.0349 17.6452 40.0671 19.8033 40.0671C23.4652 40.0671 26.4354 37.0938 26.4482 33.4214V1.91997H32.1734ZM19.5203 18.8468V17.0598C18.8598 16.9692 18.1938 16.9237 17.5271 16.924C9.50383 16.9239 3 23.4508 3 31.5016C3 36.5491 5.55612 40.9974 9.44034 43.614C6.87848 40.986 5.30002 37.3889 5.30002 33.4213C5.30002 25.473 11.6385 19.0102 19.5203 18.8468Z" fill="#00F2EA"/>
</svg>
