<svg width="48" height="34" viewBox="0 0 48 34" fill="none" xmlns="http://www.w3.org/2000/svg">
<path d="M24 0C24.0696 5.46979e-06 39.0089 0.00205013 42.7529 1.00879C43.7722 1.28672 44.7007 1.82773 45.4453 2.57715C46.1901 3.32668 46.7247 4.2591 46.9961 5.28027C47.9994 9.04836 48 16.9047 48 16.9092C48 16.9092 47.9997 24.7689 46.9961 28.5381C46.7247 29.5593 46.1901 30.4917 45.4453 31.2412C44.7007 31.9906 43.7722 32.5316 42.7529 32.8096C39.0089 33.8163 24.0696 33.8184 24 33.8184C24 33.8184 9.00002 33.8186 5.24707 32.8096C4.2278 32.5317 3.29938 31.9906 2.55469 31.2412C1.80994 30.4917 1.2743 29.5593 1.00293 28.5381C-0.000630043 24.7689 9.90821e-10 16.9092 9.90821e-10 16.9092C8.24199e-08 16.9047 -0.000344967 9.0484 1.00293 5.28027C1.2743 4.2591 1.80994 3.32668 2.55469 2.57715C3.29938 1.82778 4.2278 1.28666 5.24707 1.00879C9.00003 -0.000264905 24 0 24 0ZM19.0908 24.0469L31.6357 16.9092L19.0908 9.77246V24.0469Z" fill="#042159"/>
</svg>
