<svg xmlns="http://www.w3.org/2000/svg" viewBox="0 0 640 640"><!--!Font Awesome Free 7.0.1 by @fontawesome - https://fontawesome.com License - https://fontawesome.com/license/free Copyright 2025 Fonticons, Inc.--><path d="M569 337C578.4 327.6 578.4 312.4 569 303.1L425 159C418.1 152.1 407.8 150.1 398.8 153.8C389.8 157.5 384 166.3 384 176L384 240L272 240C245.5 240 224 261.5 224 288L224 352C224 378.5 245.5 400 272 400L384 400L384 464C384 473.7 389.8 482.5 398.8 486.2C407.8 489.9 418.1 487.9 425 481L569 337zM432 264L432 233.9L518.1 320L432 406.1L432 376C432 362.7 421.3 352 408 352L272 352L272 288L408 288C421.3 288 432 277.3 432 264zM232 144C245.3 144 256 133.3 256 120C256 106.7 245.3 96 232 96L160 96C107 96 64 139 64 192L64 448C64 501 107 544 160 544L232 544C245.3 544 256 533.3 256 520C256 506.7 245.3 496 232 496L160 496C133.5 496 112 474.5 112 448L112 192C112 165.5 133.5 144 160 144L232 144z"/></svg>