<svg xmlns="http://www.w3.org/2000/svg" viewBox="0 0 640 640"><!--!Font Awesome Free 7.0.1 by @fontawesome - https://fontawesome.com License - https://fontawesome.com/license/free Copyright 2025 Fonticons, Inc.--><path d="M561.4 65.8C552.4 62.1 542.1 64.1 535.2 71L483.4 122.8C382.8 39.3 233.3 44.7 139.1 139C39.1 239 39.1 401 139.1 501C239.1 601 401.2 601 501.1 501C516 486.1 528.7 469.8 539.2 452.5C546.1 441.2 542.4 426.4 531.1 419.5C519.8 412.6 505 416.3 498.1 427.6C489.6 441.6 479.3 454.9 467.1 467C385.9 548.2 254.2 548.2 172.9 467C91.6 385.8 91.7 254.1 172.9 172.8C248.4 97.3 367.5 92 449.1 156.8L399.1 207C392.2 213.9 390.2 224.2 393.9 233.2C397.6 242.2 406.4 248 416.1 248L552.2 248C565.5 248 576.2 237.3 576.2 224L576.2 88C576.2 78.3 570.4 69.5 561.4 65.8zM528.2 145.9L528.2 200L474.1 200L528.2 145.9z"/></svg>