<svg xmlns="http://www.w3.org/2000/svg" viewBox="0 0 640 640"><!--!Font Awesome Free 7.0.1 by @fontawesome - https://fontawesome.com License - https://fontawesome.com/license/free Copyright 2025 Fonticons, Inc.--><path d="M78.8 65.8C87.8 62.1 98.1 64.2 105 71L156.8 122.8C257.4 39.3 406.9 44.7 501.1 139C601.1 239 601.1 401.1 501.1 501C401.1 600.9 239 601 139.1 501C124.2 486.1 111.5 469.8 101 452.5C94.1 441.2 97.8 426.4 109.1 419.5C120.4 412.6 135.2 416.3 142.1 427.6C150.6 441.6 160.9 454.9 173.1 467C254.3 548.2 386 548.2 467.3 467C548.6 385.8 548.5 254.1 467.3 172.8C391.8 97.3 272.7 92 191.1 156.8L241.1 207C248 213.9 250 224.2 246.3 233.2C242.6 242.2 233.8 248 224.1 248L88 248C74.7 248 64 237.3 64 224L64 88C64 78.3 69.8 69.5 78.8 65.8zM112 145.9L112 200L166.1 200L112 145.9z"/></svg>